<svg width="29" height="33" viewBox="0 0 29 33" fill="none" xmlns="http://www.w3.org/2000/svg">
<path fill-rule="evenodd" clip-rule="evenodd" d="M17.3737 11.8572C18.3808 11.3573 19.6619 10.6211 20.9448 9.61256C21.2152 10.172 21.2451 10.66 21.1055 11.054C21.0067 11.3317 20.8205 11.5733 20.576 11.7655C20.3112 11.9731 19.9801 12.1245 19.6143 12.2062C18.9203 12.3619 18.1098 12.2712 17.3737 11.8572ZM17.5483 16.9802L18.8812 17.7469C16.1596 19.266 15.4195 22.0868 14.5404 24.834C13.6617 22.0868 12.9215 19.2658 10.2 17.7469L11.5329 16.9802C11.7974 16.8806 11.9676 16.6229 11.9541 16.3415C11.8319 13.7685 12.5296 12.6305 13.4709 11.9163C13.8083 11.6605 14.1768 11.5321 14.5404 11.5321C14.9041 11.5321 15.2726 11.6605 15.61 11.9163C16.551 12.6308 17.2487 13.7685 17.1267 16.3415C17.1133 16.6229 17.284 16.8806 17.5483 16.9802ZM14.5408 0.179688C16.0816 0.220968 17.6263 0.518732 18.9669 1.09818C19.8954 1.50005 20.7613 2.03062 21.5459 2.6653C21.9001 2.95184 22.1918 3.22866 22.5131 3.54737C23.3797 3.57711 24.6462 2.61856 25.2341 1.72163C24.2221 5.02496 19.6048 8.92564 16.4083 10.4184C16.4071 10.4178 16.4062 10.4172 16.4053 10.4166C15.8316 9.98037 15.1864 9.76217 14.541 9.76217C13.8957 9.76217 13.2505 9.98037 12.6768 10.4166C12.6759 10.4172 12.675 10.4181 12.6738 10.4184C9.47661 8.92564 4.85964 5.02465 3.84766 1.72163C4.43564 2.61856 5.70183 3.57741 6.5684 3.54737C6.88968 3.22896 7.18138 2.95184 7.53557 2.6653C8.31985 2.03062 9.18614 1.50005 10.1146 1.09818C11.4555 0.518732 12.9999 0.220968 14.5408 0.179688ZM11.7079 11.8572C10.701 11.3573 9.41964 10.6211 8.13666 9.61256C7.86629 10.172 7.83642 10.66 7.97572 11.054C8.07447 11.3317 8.26072 11.5733 8.50517 11.7655C8.77036 11.9731 9.10135 12.1245 9.46719 12.2062C10.1612 12.3619 10.972 12.2712 11.7079 11.8572Z" fill="white"/>
<path fill-rule="evenodd" clip-rule="evenodd" d="M22.3493 8.37703C23.0556 7.66736 23.678 6.88182 24.1782 6.18066L24.4324 6.6569C25.2506 8.28687 25.6758 9.91048 25.6758 11.7374L25.674 14.6368L25.6892 16.1395C25.7484 19.8293 26.5503 23.562 28.3663 26.9783L24.5666 23.9272L21.8781 28.2717L19.0538 25.624L14.5401 32.9178L10.0264 25.6243L7.20208 28.272L4.51364 23.9276L0.713867 26.9787C2.52993 23.5624 3.33159 19.8293 3.39102 16.1399L3.40626 14.637L3.40444 11.7377C3.40444 9.91048 3.82934 8.28717 4.64776 6.65721L4.90167 6.18097C5.40217 6.88182 6.02429 7.66736 6.73053 8.37736L6.50985 8.83356C6.08128 9.71953 5.93955 10.7103 6.27332 11.6527C6.48851 12.2595 6.88111 12.78 7.3874 13.1774C7.87906 13.5631 8.46095 13.8233 9.06999 13.9598C9.46686 14.0488 9.87101 14.0856 10.2728 14.0731C10.1792 14.6022 10.138 15.1506 10.1356 15.7098L6.5513 17.7713L9.31716 19.315C9.53814 19.4386 9.74881 19.5797 9.9463 19.7379C12.2266 21.7767 13.5977 27.8082 14.5398 30.7543C15.482 27.8082 16.853 21.7767 19.1333 19.7379C19.3308 19.58 19.5415 19.4386 19.7625 19.315L22.5283 17.7713L18.944 15.7098C18.9413 15.1506 18.9004 14.6022 18.8068 14.0731C19.2086 14.0856 19.6128 14.0488 20.0096 13.9598C20.6186 13.8233 21.2006 13.5631 21.6922 13.1774C22.1985 12.78 22.5911 12.2595 22.8063 11.6527C23.14 10.7106 22.9983 9.71986 22.5697 8.83356L22.3493 8.37703Z" fill="white"/>
</svg>
