<svg width="39" height="39" viewBox="0 0 39 39" fill="none" xmlns="http://www.w3.org/2000/svg">
<path fill-rule="evenodd" clip-rule="evenodd" d="M15.8304 5.07937C13.9393 6.09288 12.3921 6.95061 12.3925 6.98553C12.3934 7.07552 16.9312 9.44013 17.0923 9.43433C17.1655 9.43188 17.697 9.18006 18.2734 8.8751L19.3213 8.32053L20.4658 8.92584L21.6103 9.53125L23.4846 8.66478C26.3087 7.35908 26.602 7.21599 26.5561 7.16799C26.4951 7.10416 25.4822 6.54437 22.7339 5.05569C21.4058 4.33621 20.1166 3.63085 19.8691 3.48802C19.6215 3.34506 19.3853 3.23023 19.344 3.23245C19.3027 3.23467 17.7216 4.06586 15.8304 5.07937ZM7.5359 9.49843L5.56729 10.5448V15.1365C5.56729 17.662 5.59309 19.7282 5.62488 19.7282C5.65666 19.7282 6.62507 19.2962 7.77718 18.7682L9.87198 17.8082V12.9683L10.8957 13.542C11.6845 13.9838 12.4739 14.4246 13.2636 14.8646L14.6078 15.6134L15.2059 15.335C15.581 15.1602 15.9554 14.9837 16.329 14.8055C16.6177 14.6671 17.3264 14.3387 17.904 14.0755C18.4815 13.8122 19.016 13.5474 19.0918 13.4871C19.1925 13.4069 17.9647 12.7088 14.5506 10.905C11.9772 9.5453 9.78902 8.43707 9.68809 8.44243C9.58715 8.4478 8.61872 8.92291 7.5359 9.49843ZM26.9107 9.79222C25.5699 10.4149 24.4719 10.9494 24.4707 10.9798C24.4695 11.0103 25.2002 11.4573 26.0946 11.9731C26.989 12.4891 27.7208 12.9388 27.7208 12.9727C27.7208 13.0066 26.9294 13.401 25.9622 13.8496C24.9948 14.2982 22.5499 15.4342 20.5288 16.3742L13.7566 19.5237C12.0531 20.316 10.5175 21.0301 10.3443 21.1109C6.8647 22.7315 5.90836 23.1811 5.77704 23.2583C5.64496 23.336 5.61509 23.7875 5.59157 26.0536L5.56348 28.7564L7.32398 29.6793L9.08439 30.6021L11.5255 29.4687C12.8682 28.8453 13.9666 28.3027 13.9666 28.2627C13.9666 28.2226 13.7185 28.0566 13.4154 27.8929C13.1122 27.7293 12.4861 27.3673 12.0241 27.0881C11.5622 26.8088 11.1017 26.5527 11.0005 26.5187C10.8994 26.4848 10.8182 26.4256 10.8198 26.3869C10.8215 26.3483 11.8964 25.8231 13.2084 25.2194C15.7568 24.0472 17.7069 23.1436 21.8937 21.1957C23.7657 20.3248 25.6383 19.4547 27.5108 18.5847C29.1565 17.8203 31.07 16.9279 31.763 16.6012L33.0229 16.0072L33.0509 13.2736L33.079 10.5402L31.2934 9.59731C30.3113 9.07873 29.4719 8.65575 29.4279 8.65732C29.3839 8.65876 28.2513 9.16944 26.9107 9.79222ZM32.5447 19.6538C32.2815 19.786 31.7619 20.0337 31.3898 20.2039C31.0177 20.3742 30.3117 20.702 29.8207 20.9324L28.9283 21.3512L28.9079 23.751C28.8968 25.0709 28.8495 26.1449 28.8029 26.138C28.6974 26.1217 27.0247 25.2391 25.3434 24.3122C24.1299 23.6432 24.0536 23.6167 23.7685 23.762C23.6036 23.8461 22.6182 24.3007 21.5788 24.7725C20.5393 25.2443 19.655 25.6611 19.6133 25.6988C19.5719 25.7364 21.6638 26.9029 24.2623 28.2913L28.9867 30.8155L31.0048 29.7413C32.1148 29.1506 33.0585 28.6118 33.102 28.544C33.1998 28.3917 33.1914 19.3924 33.0935 19.4045C33.0547 19.4093 32.8077 19.5216 32.5447 19.6538ZM21.3688 30.2167C21.0187 30.3715 20.6687 30.5267 20.3188 30.6819C19.2623 31.1522 19.4693 31.1678 18.2123 30.5241C17.3751 30.0953 17.0142 29.9629 16.8576 30.0272C16.7401 30.0753 15.7289 30.5434 14.6103 31.0674C13.4918 31.5914 12.5379 32.02 12.4905 32.02C12.0211 32.02 12.8014 32.4995 15.8119 34.062L19.3426 35.8943L20.8281 35.1398C21.6451 34.7247 23.2931 33.8936 24.4904 33.293C25.6874 32.6921 26.6522 32.1848 26.6341 32.1658C26.616 32.1467 25.6129 31.6167 24.4049 30.9881L22.2086 29.8453L21.3688 30.2167Z" fill="white"/>
</svg>
