<svg width="41" height="41" viewBox="0 0 41 41" fill="none" xmlns="http://www.w3.org/2000/svg">
<g clip-path="url(#clip0_220_1670)">
<mask id="mask0_220_1670" style="mask-type:luminance" maskUnits="userSpaceOnUse" x="0" y="0" width="41" height="41">
<path d="M40.1282 0.18457H0.96875V40.9424H40.1282V0.18457Z" fill="white"/>
</mask>
<g mask="url(#mask0_220_1670)">
<path d="M33.47 24.135C32.8778 24.4915 32.1869 24.5563 31.6604 24.2647C31.0024 23.8758 30.6076 23.0008 30.6076 21.8017V18.1397C30.6076 16.3897 29.9166 15.1258 28.7322 14.8017C26.7251 14.2184 25.2116 16.6489 24.6523 17.5563L21.099 23.1628V16.26C21.0661 14.6721 20.5397 13.7322 19.5526 13.4406C18.8946 13.2461 17.9075 13.3434 16.9533 14.7693L9.02395 27.2785C7.97108 25.3017 7.41175 23.098 7.41175 20.8619C7.41175 13.3109 13.5644 7.18595 21.099 7.18595C28.6334 7.18595 34.7861 13.3109 34.7861 20.8619V20.8943V20.9267C34.8519 22.385 34.3913 23.5517 33.47 24.135ZM37.8131 20.8619V20.8295V20.7971C37.7802 11.6258 30.2785 4.13965 21.099 4.13965C11.8864 4.13965 4.38477 11.6258 4.38477 20.8619C4.38477 30.0656 11.8864 37.5841 21.099 37.5841C25.3432 37.5841 29.3573 35.9961 32.4501 33.1119C33.0752 32.5285 33.1081 31.5887 32.5159 30.973C31.9566 30.3572 31.0024 30.3248 30.3773 30.8758C30.3773 30.8758 30.3773 30.8758 30.3443 30.9082C27.8438 33.2415 24.4878 34.5702 21.0332 34.5702C16.9862 34.5702 13.367 32.8202 10.8665 30.0332L18.0062 18.7554V23.973C18.0062 26.4684 18.9933 27.2785 19.8158 27.5054C20.6384 27.7322 21.8885 27.5702 23.2375 25.4637L27.1529 19.2091C27.2845 19.0147 27.3832 18.8202 27.5148 18.6906V21.8665C27.5148 24.1998 28.4689 26.0795 30.114 26.9869C31.5946 27.8295 33.47 27.7322 35.0164 26.7924C36.9248 25.5609 37.9447 23.4221 37.8131 20.8619Z" fill="white"/>
</g>
</g>
<defs>
<clipPath id="clip0_220_1670">
<rect width="39.1595" height="40.7578" fill="white" transform="translate(0.969727 0.18457)"/>
</clipPath>
</defs>
</svg>
