<svg width="41" height="33" viewBox="0 0 41 33" fill="none" xmlns="http://www.w3.org/2000/svg">
<path fill-rule="evenodd" clip-rule="evenodd" d="M36.177 0.221674C36.6609 0.0219348 37.1905 -0.0469538 37.7108 0.0221772C38.231 0.0913082 38.7228 0.295932 39.1351 0.614751C39.5473 0.933569 39.8649 1.35493 40.0547 1.83497C40.2446 2.31501 40.2998 2.83618 40.2146 3.34424L35.7736 29.7632C35.3429 32.3115 32.4919 33.773 30.1089 32.5036C28.1156 31.4416 25.155 29.8054 22.492 28.0982C21.1605 27.2436 17.0818 24.507 17.583 22.5597C18.0138 20.8948 24.8671 14.6381 28.7833 10.9183C30.3204 9.45687 29.6194 8.61381 27.8042 9.95809C23.2967 13.2957 16.0597 18.3714 13.6669 19.8001C11.5561 21.0599 10.4556 21.275 9.13979 21.0599C6.73918 20.6682 4.51284 20.0613 2.69574 19.322C0.240302 18.3233 0.359745 15.0126 2.69378 14.0485L36.177 0.221674Z" fill="white"/>
</svg>
