<svg width="720" height="507" viewBox="0 0 720 507" fill="none" xmlns="http://www.w3.org/2000/svg">
<path d="M96.4244 102.401C103.25 85.6319 113.449 77.7728 126.245 75.0447C139.269 72.268 155.206 74.7524 173.519 79.3682C181.694 81.4287 190.27 83.893 199.21 86.462C200.249 86.7606 201.293 87.0607 202.342 87.3616C212.401 90.2479 222.89 93.2157 233.679 95.8222C255.254 101.034 278.121 104.825 301.388 103.644C310.43 103.185 317.637 100.853 323.398 97.0851C329.155 93.3199 333.353 88.1969 336.493 82.3293C342.724 70.6863 344.898 55.8648 346.817 42.358L346.936 41.5213C347.861 35.0075 348.74 28.8138 349.983 23.2881C351.283 17.5135 352.942 12.6568 355.332 9.04734C357.678 5.50368 360.707 3.18447 364.883 2.34834C369.147 1.49445 374.844 2.13976 382.555 5.07785C479.145 41.8832 528.529 37.9362 559.785 29.6547C566.651 27.8355 572.624 25.8119 577.955 24.0054C578.655 23.7684 579.344 23.535 580.022 23.3063C585.907 21.3224 590.943 19.7142 595.714 18.9677C600.438 18.2286 604.856 18.3443 609.471 19.8032C614.108 21.2691 619.073 24.1313 624.819 29.0739C634.464 37.3712 638.007 45.9084 638.37 54.7208C638.738 63.6854 635.83 73.1112 632.125 83.1823C631.414 85.1149 630.673 87.0717 629.924 89.0498C626.819 97.2532 623.575 105.822 621.739 114.538C619.444 125.437 619.292 136.772 624.286 148.353C633.028 168.623 648.702 180.81 663.964 192.664L664.009 192.699C679.348 204.613 694.268 216.202 702.749 235.331C713.022 258.502 718.031 278.186 718 297.797C717.968 317.411 712.894 337.117 702.745 360.332C698.197 370.735 697.864 383.083 699.02 395.797C699.745 403.777 701.087 412.115 702.405 420.313C703.177 425.112 703.942 429.863 704.57 434.465C706.296 447.104 707.031 458.786 704.54 468.439C702.091 477.929 696.515 485.503 685.311 490.067C671.374 495.745 654.272 496.277 635.346 493.43C616.44 490.586 595.899 484.4 575.199 476.835C555.238 469.539 535.205 460.989 516.41 452.968L514.342 452.086C494.987 443.828 476.971 436.188 461.905 431.235C409.749 414.09 407.621 413.285 361.35 395.781C359.017 394.899 356.572 393.974 354.003 393.002C323.976 381.648 284.678 380.196 243.437 382.721C211.474 384.677 178.144 389.04 146.837 393.138C137.719 394.331 128.773 395.502 120.082 396.585C81.3891 401.404 47.9617 404.436 26.4811 400.177C15.7504 398.049 8.47466 394.189 4.82345 388.297C1.20165 382.453 0.785392 374.01 5.21544 361.816C9.9832 348.692 19.1142 339.408 30.701 332.018C42.333 324.599 56.3086 319.168 70.6554 313.694C71.1328 313.512 71.6107 313.33 72.0888 313.148C85.8996 307.882 99.9778 302.513 112.139 295.256C124.759 287.725 135.464 278.077 141.789 264.221C148.993 248.44 148.009 234.013 142.947 220.405C137.925 206.907 128.861 194.148 119.916 181.63L119.572 181.149C110.674 168.698 101.935 156.468 96.8563 143.611C91.7518 130.688 90.3902 117.227 96.4244 102.401Z" fill="#8EF410" stroke="black" stroke-width="4"/>
<path d="M709.017 284.52C713.179 321.257 707.315 351.691 695.919 352.495C684.524 353.299 698.692 322.279 694.53 285.542C690.368 248.804 669.453 220.26 680.848 219.456C692.244 218.652 704.855 247.782 709.017 284.52Z" fill="#78D209"/>
<path d="M108.521 394.233C62.1144 398.612 23.5679 396.047 22.4249 388.504C21.2819 380.96 60.6613 389.022 107.068 384.643C153.474 380.264 189.335 365.102 190.478 372.645C191.621 380.189 154.927 389.854 108.521 394.233Z" fill="#78D209"/>
<path d="M539.484 457.753C497.251 441.953 343.871 376.922 359.655 379.837C380.371 383.663 345.111 380.942 530.228 422.969C723.279 466.796 688.459 483.145 678.322 486.275C661.132 491.583 581.716 473.552 539.484 457.753Z" fill="#78D209"/>
<path d="M133.336 180.809C119.171 145.66 114.024 121.893 123.198 119.59C132.372 117.288 127.986 140.095 142.151 175.244C156.315 210.393 194.108 237.004 184.934 239.307C175.76 241.609 147.5 215.959 133.336 180.809Z" fill="#78D209"/>
<path d="M420.632 114.408C458.199 119.394 481.418 126.621 478.903 135.74C476.389 144.858 458.701 129.806 421.134 124.821C383.567 119.835 341.793 139.617 344.308 130.499C346.823 121.381 383.066 109.422 420.632 114.408Z" fill="#78D209"/>
<path d="M486.049 118.948C521.531 134.955 533.155 147.742 530.352 152.203C527.55 156.663 515.612 140.002 480.131 123.995C444.649 107.987 427.978 111.993 430.781 107.533C433.584 103.072 450.567 102.94 486.049 118.948Z" fill="#78D209"/>
<ellipse cx="14.7229" cy="6.4334" rx="14.7229" ry="6.4334" transform="matrix(0.969814 -0.243846 0.374357 0.927285 197.459 363.365)" fill="#78D209"/>
<ellipse cx="7.86856" cy="3.43829" rx="7.86856" ry="3.43829" transform="matrix(0.996631 -0.0820147 0.217722 0.976011 410 103.291)" fill="#78D209"/>
<path d="M118.123 90.0897C118.123 93.3555 117.715 96.0029 115.038 96.0029C112.36 96.0029 110.189 93.3555 110.189 90.0897C110.189 86.8239 116.327 82.7852 119.005 82.7852C121.682 82.7852 118.123 86.8239 118.123 90.0897Z" fill="#78D209"/>
</svg>
