<svg width="111" height="29" viewBox="0 0 111 29" fill="none" xmlns="http://www.w3.org/2000/svg">
<path d="M10.6133 8.84961L18.2376 21.6101H2.98905L10.6133 8.84961Z" fill="white"/>
<path d="M23.275 15.377L17.0214 5.06468L29.5287 5.06468L23.275 15.377Z" fill="white"/>
<path d="M98.6328 14.1001C98.6328 12.92 98.8988 11.8811 99.4307 10.9835C99.9792 10.0859 100.719 9.3878 101.65 8.88914C102.581 8.37385 103.636 8.11621 104.816 8.11621C105.996 8.11621 107.044 8.37385 107.958 8.88914C108.889 9.3878 109.628 10.0859 110.177 10.9835C110.725 11.8811 111 12.92 111 14.1001C111 15.2637 110.725 16.3026 110.177 17.2168C109.628 18.1144 108.889 18.8208 107.958 19.3361C107.044 19.8348 105.996 20.0841 104.816 20.0841C103.636 20.0841 102.581 19.8348 101.65 19.3361C100.719 18.8208 99.9792 18.1144 99.4307 17.2168C98.8988 16.3026 98.6328 15.2637 98.6328 14.1001ZM101.4 14.1001C101.4 14.8149 101.55 15.4465 101.849 15.9951C102.148 16.527 102.556 16.9508 103.071 17.2666C103.586 17.5658 104.168 17.7154 104.816 17.7154C105.448 17.7154 106.021 17.5658 106.537 17.2666C107.068 16.9508 107.484 16.527 107.783 15.9951C108.082 15.4465 108.232 14.8149 108.232 14.1001C108.232 13.3854 108.082 12.7538 107.783 12.2052C107.484 11.6567 107.068 11.2328 106.537 10.9336C106.021 10.6345 105.448 10.4849 104.816 10.4849C104.168 10.4849 103.586 10.6345 103.071 10.9336C102.556 11.2328 102.148 11.6567 101.849 12.2052C101.55 12.7538 101.4 13.3854 101.4 14.1001Z" fill="white"/>
<path d="M86.29 8.36621H89.2321L92.2241 15.7713L95.2161 8.36621H98.1831L92.2241 20.8826L86.29 8.36621Z" fill="white"/>
<path d="M73.4795 14.1001C73.4795 12.92 73.7454 11.8811 74.2774 10.9835C74.8259 10.0859 75.5656 9.3878 76.4964 8.88914C77.4272 8.37385 78.4827 8.11621 79.6629 8.11621C80.8431 8.11621 81.8902 8.37385 82.8045 8.88914C83.7353 9.3878 84.475 10.0859 85.0235 10.9835C85.572 11.8811 85.8463 12.92 85.8463 14.1001C85.8463 15.2637 85.572 16.3026 85.0235 17.2168C84.475 18.1144 83.7353 18.8208 82.8045 19.3361C81.8902 19.8348 80.8431 20.0841 79.6629 20.0841C78.4827 20.0841 77.4272 19.8348 76.4964 19.3361C75.5656 18.8208 74.8259 18.1144 74.2774 17.2168C73.7454 16.3026 73.4795 15.2637 73.4795 14.1001ZM76.2471 14.1001C76.2471 14.8149 76.3967 15.4465 76.6959 15.9951C76.9951 16.527 77.4023 16.9508 77.9176 17.2666C78.4329 17.5658 79.0146 17.7154 79.6629 17.7154C80.2945 17.7154 80.868 17.5658 81.3833 17.2666C81.9152 16.9508 82.3307 16.527 82.6299 15.9951C82.9291 15.4465 83.0787 14.8149 83.0787 14.1001C83.0787 13.3854 82.9291 12.7538 82.6299 12.2052C82.3307 11.6567 81.9152 11.2328 81.3833 10.9336C80.868 10.6345 80.2945 10.4849 79.6629 10.4849C79.0146 10.4849 78.4329 10.6345 77.9176 10.9336C77.4023 11.2328 76.9951 11.6567 76.6959 12.2052C76.3967 12.7538 76.2471 13.3854 76.2471 14.1001Z" fill="white"/>
<path d="M68.1468 12.8535C68.1468 12.0058 67.9723 11.3658 67.6232 10.9336C67.2741 10.5015 66.7339 10.2854 66.0025 10.2854C65.5039 10.2854 65.0634 10.3934 64.6811 10.6095C64.2988 10.809 63.9996 11.1082 63.7835 11.5071C63.5674 11.8894 63.4594 12.3382 63.4594 12.8535V19.8348H60.7666V8.36554H63.4594V10.1358C63.8251 9.45429 64.2905 8.94731 64.8556 8.61487C65.4374 8.28243 66.1272 8.11621 66.9251 8.11621C68.2216 8.11621 69.2106 8.51514 69.8921 9.313C70.5736 10.0942 70.9144 11.1747 70.9144 12.5543V19.8348H68.1468V12.8535Z" fill="white"/>
<path d="M50.7134 16.0699C51.079 16.4688 51.4447 16.8179 51.8104 17.117C52.1927 17.3996 52.575 17.6157 52.9573 17.7653C53.3396 17.8983 53.722 17.9648 54.1043 17.9648C54.5863 17.9648 54.9603 17.8567 55.2262 17.6406C55.5088 17.4246 55.6501 17.1254 55.6501 16.7431C55.6501 16.4106 55.5421 16.128 55.326 15.8953C55.1099 15.646 54.8107 15.4382 54.4284 15.272C54.0461 15.0892 53.5973 14.9063 53.082 14.7235C52.5667 14.524 52.0514 14.2913 51.5362 14.0253C51.0375 13.7428 50.6219 13.3771 50.2895 12.9283C49.9737 12.4795 49.8158 11.9143 49.8158 11.2328C49.8158 10.5347 49.9903 9.95295 50.3394 9.48753C50.7051 9.02211 51.1871 8.68136 51.7855 8.46527C52.4005 8.23256 53.0571 8.11621 53.7552 8.11621C54.3868 8.11621 54.9769 8.20763 55.5254 8.39047C56.0906 8.57332 56.5976 8.81434 57.0464 9.11353C57.4952 9.41273 57.8775 9.75348 58.1933 10.1358L56.6973 11.7315C56.315 11.2827 55.8579 10.917 55.326 10.6345C54.7941 10.3519 54.2455 10.2106 53.6804 10.2106C53.2981 10.2106 52.9823 10.2937 52.7329 10.4599C52.4836 10.6261 52.3589 10.8672 52.3589 11.183C52.3589 11.4489 52.467 11.69 52.6831 11.906C52.9158 12.1055 53.215 12.2883 53.5807 12.4546C53.963 12.6208 54.3868 12.7953 54.8523 12.9782C55.4839 13.2275 56.0657 13.5018 56.5976 13.801C57.1295 14.1001 57.5533 14.4658 57.8691 14.898C58.2016 15.3302 58.3678 15.8953 58.3678 16.5935C58.3678 17.6739 57.9938 18.5465 57.2458 19.2114C56.5145 19.8597 55.5171 20.1838 54.2539 20.1838C53.4726 20.1838 52.7496 20.0675 52.0847 19.8348C51.4364 19.5854 50.863 19.2696 50.3643 18.8873C49.8823 18.4884 49.475 18.0728 49.1426 17.6406L50.7134 16.0699Z" fill="white"/>
<path d="M35.2725 14.1001C35.2725 12.92 35.5384 11.8811 36.0703 10.9835C36.6188 10.0859 37.3585 9.3878 38.2894 8.88914C39.2202 8.37385 40.2757 8.11621 41.4559 8.11621C42.636 8.11621 43.6832 8.37385 44.5974 8.88914C45.5283 9.3878 46.2679 10.0859 46.8165 10.9835C47.365 11.8811 47.6393 12.92 47.6393 14.1001C47.6393 15.2637 47.365 16.3026 46.8165 17.2168C46.2679 18.1144 45.5283 18.8208 44.5974 19.3361C43.6832 19.8348 42.636 20.0841 41.4559 20.0841C40.2757 20.0841 39.2202 19.8348 38.2894 19.3361C37.3585 18.8208 36.6188 18.1144 36.0703 17.2168C35.5384 16.3026 35.2725 15.2637 35.2725 14.1001ZM38.04 14.1001C38.04 14.8149 38.1896 15.4465 38.4888 15.9951C38.788 16.527 39.1953 16.9508 39.7105 17.2666C40.2258 17.5658 40.8076 17.7154 41.4559 17.7154C42.0875 17.7154 42.661 17.5658 43.1762 17.2666C43.7081 16.9508 44.1237 16.527 44.4229 15.9951C44.7221 15.4465 44.8717 14.8149 44.8717 14.1001C44.8717 13.3854 44.7221 12.7538 44.4229 12.2052C44.1237 11.6567 43.7081 11.2328 43.1762 10.9336C42.661 10.6345 42.0875 10.4849 41.4559 10.4849C40.8076 10.4849 40.2258 10.6345 39.7105 10.9336C39.1953 11.2328 38.788 11.6567 38.4888 12.2052C38.1896 12.7538 38.04 13.3854 38.04 14.1001Z" fill="white"/>
</svg>
